<?xml version="1.0"?>
<svg width="225" height="225" xmlns="http://www.w3.org/2000/svg" preserveAspectRatio="xMidYMid meet" version="1.0">
 <g class="layer">
  <title>Layer 1</title>
  <g fill="#000000" id="svg_1" transform="matrix(0.1 0 0 -0.1 0 0)">
   <path d="m1018,-15c-173,-47 -305,-194 -326,-360l-7,-60l-145,-3c-164,-3 -175,-8 -185,-76c-12,-83 -125,-1398 -125,-1449c0,-114 91,-226 217,-266c67,-22 74,-22 698,-19l630,3l62,29c75,34 142,102 168,169c22,59 21,93 -35,707c-22,245 -47,526 -55,625c-9,99 -18,194 -20,210c-10,59 -12,60 -177,65l-153,5l-7,59c-31,248 -299,428 -540,361zm245,-129c102,-49 175,-148 185,-247l5,-49l-327,0l-326,0l0,34c0,47 24,109 61,161c89,124 265,169 402,101zm-575,-520c1,-61 8,-116 14,-123c6,-7 23,-13 38,-13c15,0 32,6 38,13c6,7 13,62 14,123l3,109l330,0l330,0l3,-109c1,-61 8,-116 14,-123c14,-17 62,-17 76,0c6,7 13,62 14,123l3,109l113,3c89,2 112,0 112,-11c0,-7 18,-211 39,-453c22,-241 50,-551 62,-689c13,-142 19,-267 15,-288c-9,-50 -69,-109 -131,-131c-43,-14 -118,-16 -650,-16c-532,0 -607,2 -650,16c-62,22 -122,81 -131,131c-4,21 2,146 15,288c12,138 40,448 62,689c21,242 39,446 39,453c0,11 23,13 113,11l112,-3l3,-109z" fill="#7f7f7f" id="svg_2"/>
  </g>
 </g>
</svg>