<?xml version="1.0"?>
<svg width="600" height="600" xmlns="http://www.w3.org/2000/svg" preserveAspectRatio="xMidYMid meet" version="1.0">
 <g class="layer">
  <title>Layer 1</title>
  <g fill="#000000" id="svg_1" transform="matrix(0.1 0 0 -0.1 0 0)">
   <path d="m2405,-6c-150,-16 -376,-54 -440,-74c-16,-5 -70,-21 -120,-36c-261,-76 -550,-223 -797,-404c-116,-85 -324,-282 -438,-415c-151,-176 -308,-428 -391,-629c-23,-55 -48,-115 -56,-133c-46,-106 -105,-327 -134,-503c-20,-119 -23,-170 -23,-425c-1,-256 2,-305 22,-419c96,-551 329,-1016 702,-1400c233,-240 433,-388 710,-527c257,-128 505,-206 815,-256c156,-25 581,-25 745,1c131,20 334,66 430,98c259,84 531,223 740,378c41,30 81,59 88,64c10,6 185,-162 661,-636c601,-599 650,-645 699,-662c136,-47 292,11 352,130c36,71 40,191 8,256c-17,36 -179,204 -661,688l-639,639l45,58c257,335 435,759 504,1203c22,144 25,592 5,740c-144,1039 -875,1880 -1888,2174c-207,60 -413,87 -674,91c-124,2 -243,1 -265,-1zm610,-598c633,-129 1182,-552 1454,-1119c134,-280 194,-517 207,-822c55,-1241 -1039,-2264 -2271,-2126c-361,41 -717,181 -1001,394c-127,96 -351,313 -409,399c-273,400 -385,693 -416,1093c-22,275 10,537 97,804c207,631 718,1131 1354,1325c232,70 359,86 650,81c178,-3 236,-8 335,-29z" fill="#ffffff" id="svg_2" stroke="#ffffff"/>
  </g>
 </g>
</svg>