<?xml version="1.0"?>
<svg width="600" height="600" xmlns="http://www.w3.org/2000/svg" preserveAspectRatio="xMidYMid meet" version="1.0">
 <g class="layer">
  <title>Layer 1</title>
  <g fill="#000000" id="svg_1" transform="matrix(0.1 0 0 -0.1 0 0)">
   <path d="m115,-376c-85,-44 -115,-92 -115,-183c0,-82 26,-139 81,-174c24,-16 50,-28 59,-27c8,1 115,4 236,7l221,4l7,-48c13,-98 17,-119 31,-178c8,-33 17,-82 20,-108c2,-27 6,-51 9,-55c2,-4 7,-32 11,-62c3,-30 11,-72 16,-94c6,-21 13,-57 15,-80c3,-22 12,-68 21,-101c8,-33 16,-73 18,-90c2,-29 15,-101 35,-210c6,-27 12,-68 16,-90c3,-22 9,-56 15,-76c5,-19 12,-60 15,-90c3,-30 9,-58 12,-64c3,-5 7,-16 8,-25c4,-46 16,-123 28,-180c25,-118 49,-245 48,-260c0,-8 4,-31 9,-50c5,-20 11,-54 14,-76c3,-23 14,-76 24,-119c11,-43 18,-82 16,-85c-3,-4 0,-22 5,-40c5,-18 12,-56 15,-84c3,-28 10,-67 15,-86c5,-19 12,-55 15,-80c3,-25 10,-61 15,-80c5,-19 12,-57 15,-85c3,-27 10,-66 15,-85c5,-19 12,-55 15,-80c3,-25 13,-74 21,-108c8,-35 16,-73 16,-85c0,-12 4,-38 9,-57c4,-19 10,-55 13,-79c6,-48 14,-93 47,-246c12,-55 23,-113 25,-128c2,-15 9,-37 15,-48c10,-19 4,-28 -49,-79c-88,-86 -159,-226 -167,-331c-1,-22 -5,-43 -9,-46c-10,-11 -7,-121 4,-128c6,-4 8,-11 5,-16c-12,-19 17,-126 55,-205c35,-72 93,-151 138,-188c8,-6 26,-24 41,-39c15,-15 43,-37 62,-47c74,-41 185,-92 209,-95c14,-2 25,-4 25,-5c0,-7 252,-4 261,2c7,5 16,8 20,6c37,-9 227,80 242,115c2,4 10,7 18,7c8,0 14,4 14,10c0,5 16,20 35,32c19,13 35,29 35,36c0,7 6,15 14,18c36,14 142,215 149,284c2,14 6,30 9,35c3,6 5,62 4,125c-2,118 -16,185 -48,232c-10,14 -18,29 -18,32c0,3 360,6 800,6c440,0 800,-2 800,-5c0,-3 -8,-22 -19,-43c-17,-34 -26,-69 -39,-147c-4,-27 -6,-117 -3,-170c3,-38 34,-140 62,-200c32,-67 127,-194 147,-195c6,0 12,-4 12,-10c0,-30 213,-150 292,-164c12,-3 25,-5 28,-6c17,-7 260,-3 260,4c0,4 7,6 15,3c8,-4 17,-2 20,4c4,5 11,7 16,4c5,-4 21,0 36,8c16,7 55,27 88,43c62,30 84,44 119,80c12,11 29,23 39,27c9,3 17,12 17,19c0,7 11,22 25,32c14,10 25,23 25,28c0,6 9,17 20,26c46,40 127,250 114,299c-3,11 -1,24 5,27c14,9 14,103 0,111c-6,4 -8,13 -5,21c20,51 -73,270 -143,341c-23,22 -41,46 -41,52c0,6 -6,11 -14,11c-8,0 -21,9 -29,21c-28,39 -212,145 -257,147c-12,1 -68,8 -90,12c-3,0 -673,0 -1490,0c-1413,0 -1486,1 -1487,17c-1,10 -2,35 -4,56c-1,21 -6,40 -11,43c-4,3 -6,9 -3,14c3,5 1,29 -5,52c-7,23 -14,63 -17,88c-2,25 -9,49 -14,55c-5,5 -9,17 -9,27c0,17 66,18 1598,18c1030,0 1601,-3 1608,-10c10,-10 81,5 99,21c5,5 15,9 21,9c22,0 102,59 139,103c52,59 75,107 78,160c1,9 5,17 10,17c5,0 5,9 2,20c-3,11 -2,20 3,20c6,0 9,18 8,40c-1,22 2,40 7,40c5,0 6,11 3,25c-4,16 -2,25 5,25c6,0 9,6 6,14c-3,8 -3,17 1,21c6,6 12,45 16,103c0,12 5,22 9,22c5,0 5,9 2,20c-3,11 -2,20 3,20c6,0 9,18 8,40c-1,22 2,40 7,40c5,0 7,10 3,23c-3,12 1,35 9,51c8,15 13,31 10,35c-2,4 2,32 10,61c8,29 14,56 13,59c0,3 1,8 2,11c1,3 4,16 5,30c9,77 13,98 19,109c4,6 5,15 1,20c-3,5 -1,12 4,15c5,3 8,20 7,38c-2,18 2,39 7,45c5,7 7,20 3,28c-3,8 -1,15 5,15c6,0 8,9 4,20c-3,11 -2,20 3,20c6,0 10,10 10,23c0,36 8,93 16,106c4,6 5,15 1,20c-3,5 -1,12 4,15c5,3 8,20 7,38c-2,18 2,39 7,45c5,7 7,20 3,28c-3,8 -1,15 5,15c6,0 8,9 4,20c-4,12 -2,20 5,20c7,0 10,6 7,14c-3,8 -2,30 3,48c6,18 12,49 14,68c3,19 5,35 6,35c3,0 11,64 13,98c1,15 6,27 11,27c4,0 5,8 2,17c-4,9 -1,20 6,24c10,7 10,11 0,21c-15,15 -16,80 -2,94c18,18 -26,129 -75,192c-37,49 -84,88 -146,118l-48,25l-2021,-1c-1621,0 -2020,2 -2021,12c-5,75 -7,94 -9,98c-1,3 -2,9 -1,14c1,5 -1,16 -5,25c-8,18 -9,23 -18,101c-3,30 -13,79 -21,109c-8,30 -12,58 -9,62c2,4 0,10 -5,14c-6,3 -8,12 -5,20c3,8 2,20 -2,27c-4,7 -9,21 -10,33c-14,121 -20,146 -52,210c-38,77 -176,198 -240,211c-54,11 -585,9 -607,-2zm4885,-1345c-5,-17 -9,-34 -8,-38c2,-9 -21,-141 -42,-241c-10,-47 -23,-121 -30,-165c-6,-44 -20,-120 -30,-170c-10,-49 -24,-124 -30,-165c-7,-41 -19,-106 -27,-145c-8,-38 -16,-86 -19,-105c-2,-19 -10,-64 -18,-100c-15,-69 -36,-186 -42,-235c-2,-16 -6,-41 -10,-55c-3,-14 -8,-43 -10,-65c-3,-22 -9,-56 -14,-75c-6,-19 -10,-47 -10,-62l0,-28l-1619,0l-1618,0l3,28c2,15 -2,44 -7,66c-6,21 -11,51 -11,67c-1,16 -4,29 -9,29c-4,0 -5,9 -2,20c3,12 0,20 -6,20c-7,0 -11,6 -9,13c1,6 -2,37 -6,67c-5,30 -8,63 -7,73c1,9 -1,17 -6,17c-4,0 -8,10 -9,23c-2,39 -15,120 -29,181c-8,33 -12,63 -9,67c2,4 0,10 -5,13c-5,3 -7,15 -4,26c3,11 1,20 -3,20c-5,0 -10,10 -10,23c-2,44 -16,132 -22,142c-3,5 -7,16 -8,25c-9,85 -17,136 -33,197c-10,40 -16,74 -14,77c3,3 2,13 -2,23c-9,21 -13,44 -16,91c-1,18 -6,35 -11,38c-4,3 -6,9 -3,14c3,5 1,27 -4,47c-6,21 -13,60 -16,87c-3,27 -8,53 -12,59c-4,6 -8,25 -10,42c-2,16 -7,42 -13,58l-9,27l1919,0l1919,0l-9,-31zm-3273,-2798c10,2 29,-3 43,-11c14,-7 26,-11 27,-9c2,2 27,-15 56,-38c34,-28 58,-56 66,-80c8,-21 18,-49 24,-63c11,-29 13,-97 4,-107c-4,-3 -7,-15 -7,-25c0,-25 -43,-98 -72,-125c-35,-31 -112,-69 -132,-64c-6,1 -20,-3 -33,-10c-17,-9 -26,-9 -36,0c-8,6 -22,9 -31,5c-9,-3 -16,-2 -16,4c0,5 -13,12 -29,15c-49,10 -117,76 -142,137c-12,30 -26,60 -31,67c-5,6 -5,14 1,17c5,4 10,25 10,49c0,57 3,77 11,77c3,0 12,15 18,33c16,40 92,99 152,116c25,7 52,16 60,21c8,4 20,3 27,-2c6,-5 20,-8 30,-7zm2867,-14c64,-19 130,-86 151,-154c18,-57 24,-127 12,-140c-4,-3 -7,-15 -7,-25c0,-55 -94,-163 -153,-175c-15,-3 -30,-9 -33,-14c-2,-4 -11,-6 -19,-2c-9,3 -22,0 -30,-7c-12,-10 -18,-10 -29,-1c-8,7 -20,11 -28,9c-18,-3 -118,46 -148,74c-21,19 -62,94 -66,120c-1,4 -2,9 -4,11c-6,7 -6,107 0,107c4,0 7,6 6,13c0,6 8,32 18,57c23,54 91,110 156,129c25,8 50,15 55,17c13,4 71,-5 119,-19z" fill="#7f7f7f" id="svg_2"/>
  </g>
 </g>
</svg>