<?xml version="1.0"?>
<svg width="194" height="160" xmlns="http://www.w3.org/2000/svg" preserveAspectRatio="xMidYMid meet" version="1.0">
 <g class="layer">
  <title>Layer 1</title>
  <g fill="#000000" id="svg_1" transform="matrix(0.1 0 0 -0.1 0 0)">
   <path d="m1180,-57c-57,-22 -100,-107 -80,-158c5,-14 10,-28 10,-30c0,-1 -16,-6 -35,-9c-33,-6 -45,-1 -152,75c-64,45 -122,82 -129,83c-15,1 -246,-323 -241,-338c2,-6 55,-46 118,-91l116,-80l-1,-61c-1,-57 2,-64 42,-117l44,-56l-41,-60l-41,-59l-50,19c-98,37 -216,16 -295,-53l-43,-38l-132,0c-120,0 -131,-2 -128,-18c3,-15 16,-17 110,-17c58,0 109,-3 112,-6c4,-3 -1,-25 -9,-49c-20,-56 -19,-144 2,-206c25,-74 113,-157 188,-180c163,-47 337,45 377,198l12,48l61,0c60,0 61,0 73,-33c21,-58 86,-74 129,-31c23,23 25,31 20,81l-6,56l132,194c73,106 135,193 138,193c6,0 29,-92 29,-119c0,-10 -13,-22 -35,-29c-47,-18 -122,-93 -148,-150c-31,-68 -29,-179 3,-247c55,-112 146,-169 275,-169c68,-1 88,3 131,26c176,92 220,321 89,466c-57,63 -120,94 -207,100c-64,4 -69,6 -74,31c-4,14 -15,59 -25,100c-25,100 -25,111 6,111c14,0 34,9 45,20c25,25 35,25 60,0c40,-40 16,-95 -45,-102c-19,-2 -30,-9 -30,-18c0,-26 73,-17 103,13c47,48 25,141 -37,153c-17,4 -33,16 -40,31c-8,17 -42,39 -119,74c-94,45 -115,59 -174,122l-66,72l29,6c16,4 39,13 52,22c23,15 57,73 57,96c0,6 18,11 41,11c33,0 40,3 37,17c-2,12 -15,18 -42,21c-31,3 -48,12 -75,44c-30,33 -43,41 -81,44c-25,2 -52,1 -60,-3zm110,-58c26,-28 29,-27 -65,-27c-94,0 -91,-1 -65,27c18,19 34,25 65,25c31,0 47,-6 65,-25zm-375,-101c95,-67 107,-82 82,-102c-10,-9 -36,5 -108,54c-121,84 -126,88 -109,109c17,21 22,18 135,-61zm405,21c0,-52 -70,-93 -127,-74c-31,10 -63,50 -63,79c0,6 35,10 95,10c79,0 95,-3 95,-15zm-462,-90c56,-38 101,-74 102,-78c0,-6 -88,-137 -145,-215c-4,-5 -216,146 -216,155c0,14 144,214 151,211c4,-2 53,-34 108,-73zm382,-105c87,-91 103,-103 194,-145c55,-25 105,-50 112,-56c15,-12 7,-46 -12,-53c-7,-3 -63,16 -125,42c-85,36 -130,62 -192,114c-45,37 -88,67 -94,68c-17,0 -16,-20 1,-39c12,-14 7,-26 -41,-93l-56,-77l-60,42c-33,23 -61,47 -64,54c-3,6 30,61 71,122c77,110 107,135 151,125c11,-3 63,-50 115,-104zm-12,-153c29,-24 89,-59 133,-77c87,-37 93,-42 103,-82l6,-28l-214,0c-176,0 -216,3 -226,15c-10,12 0,32 60,115c39,55 75,100 79,100c3,0 30,-19 59,-43zm-230,-112c2,-2 -1,-13 -8,-24c-9,-18 -1,-38 59,-139c68,-115 70,-120 105,-285c38,-181 37,-207 -8,-207c-13,0 -29,7 -36,15c-7,8 -29,86 -50,174l-38,159l-101,121c-93,112 -101,125 -101,164c0,29 8,54 25,79l25,38l63,-46c34,-25 63,-47 65,-49zm452,-112c0,-5 -17,-33 -38,-63c-164,-241 -206,-300 -211,-300c-4,0 -17,48 -29,106c-18,86 -31,121 -67,181c-25,40 -45,76 -45,78c0,3 88,5 195,5c107,0 195,-3 195,-7zm-472,-201c8,-13 27,-75 42,-138l27,-114l-52,0l-53,0l-7,43c-10,56 -39,116 -80,164l-34,40l36,53l36,54l35,-40c19,-21 41,-49 50,-62zm-229,-12c20,-10 17,-16 -55,-125c-42,-62 -73,-118 -70,-123c3,-6 67,-13 142,-17c133,-7 135,-8 130,-29c-32,-127 -131,-206 -259,-206c-192,0 -322,201 -239,369c16,35 19,36 77,39c80,3 105,10 105,27c0,12 -14,15 -61,15c-52,0 -60,2 -50,14c18,21 81,49 126,56c46,6 124,-3 154,-20zm986,-10c77,-47 135,-147 135,-230c0,-64 -31,-132 -83,-184c-59,-59 -104,-76 -193,-76c-103,1 -184,55 -230,155c-40,86 -31,176 28,262c26,38 99,93 125,93c5,0 23,-56 38,-125c31,-138 38,-156 55,-139c10,10 -12,130 -46,251c-5,18 -1,22 23,25c43,5 112,-10 148,-32zm-896,-59c33,-41 61,-109 61,-145c0,-20 -4,-21 -72,-19c-40,2 -92,6 -115,9l-41,5l61,94c34,52 65,94 69,95c3,0 20,-18 37,-39z" fill="#7f7f7f" id="svg_2"/>
   <path d="m90,-565c0,-12 13,-15 60,-15c47,0 60,3 60,15c0,12 -13,15 -60,15c-47,0 -60,-3 -60,-15z" fill="#7f7f7f" id="svg_3"/>
   <path d="m260,-565c0,-13 26,-15 175,-15c149,0 175,2 175,15c0,13 -26,15 -175,15c-149,0 -175,-2 -175,-15z" fill="#7f7f7f" id="svg_4"/>
   <path d="m227,-666c-4,-4 -7,-13 -7,-21c0,-10 47,-13 241,-13c224,0 240,1 237,18c-3,15 -23,17 -234,20c-127,1 -233,-1 -237,-4z" fill="#7f7f7f" id="svg_5"/>
   <path d="m255,-830c-13,-21 11,-31 66,-28c40,2 54,7 54,18c0,19 -109,28 -120,10z" fill="#7f7f7f" id="svg_6"/>
   <path d="m425,-830c-16,-25 13,-30 176,-30c162,0 169,1 169,20c0,19 -7,20 -169,20c-103,0 -172,-4 -176,-10z" fill="#7f7f7f" id="svg_7"/>
  </g>
 </g>
</svg>