<?xml version="1.0"?>
<svg width="225" height="225" xmlns="http://www.w3.org/2000/svg" preserveAspectRatio="xMidYMid meet" version="1.0">
 <g class="layer">
  <title>Layer 1</title>
  <g fill="#000000" id="svg_1" transform="matrix(0.1 0 0 -0.1 0 0)">
   <path d="m745,-25c-24,-23 -25,-29 -25,-155l0,-130l-235,0c-265,0 -285,-4 -311,-67c-12,-27 -13,-42 -4,-69c19,-56 51,-74 136,-74l74,0l0,-807c0,-750 1,-810 18,-842c9,-19 30,-44 45,-55c28,-21 37,-21 682,-21c645,0 654,0 682,21c15,11 36,36 45,55c17,32 18,92 18,842l0,807l73,0c83,0 111,14 133,65c19,46 2,100 -39,125c-29,18 -52,20 -269,20l-238,0l0,130c0,126 -1,132 -25,155l-24,25l-356,0l-356,0l-24,-25zm625,-210l0,-75l-245,0l-245,0l0,75l0,75l245,0l245,0l0,-75zm-621,-511c21,-26 21,-35 21,-624c0,-589 0,-598 -21,-624c-27,-34 -82,-36 -116,-4l-23,21l0,606l0,605l22,23c31,33 90,32 117,-3zm416,20c44,-17 45,-30 45,-644c0,-614 -1,-627 -45,-644c-21,-8 -59,-8 -80,0c-44,17 -45,30 -45,644c0,666 -2,647 82,649c14,1 34,-2 43,-5zm452,-16l23,-21l0,-606l0,-605l-22,-23c-31,-33 -90,-32 -117,3c-21,26 -21,35 -21,627l0,601l22,23c28,30 83,31 115,1z" fill="#fd6d07" id="svg_2"/>
  </g>
 </g>
</svg>