<?xml version="1.0"?>
<svg width="167" height="168" xmlns="http://www.w3.org/2000/svg" preserveAspectRatio="xMidYMid meet" version="1.0">
 <g class="layer">
  <title>Layer 1</title>
  <g fill="#000000" id="svg_1" transform="matrix(0.1 0 0 -0.1 0 0)">
   <path d="m650,-110c-41,-11 -113,-39 -160,-62c-69,-34 -103,-60 -180,-138c-78,-77 -104,-111 -138,-180c-57,-115 -82,-218 -82,-342c0,-129 21,-221 77,-338c40,-82 59,-108 142,-191c83,-83 109,-102 191,-142c119,-57 209,-77 343,-77c83,0 123,5 193,26c139,40 215,85 325,194c84,83 102,107 142,190c58,123 77,204 77,333c0,129 -24,230 -82,347c-34,69 -60,103 -138,180c-77,78 -111,104 -180,138c-47,23 -121,51 -164,62c-105,26 -262,26 -366,0zm355,-75c144,-36 305,-153 391,-282c86,-130 126,-300 105,-451c-14,-100 -56,-216 -105,-287c-31,-46 -136,-159 -142,-153c-1,2 -10,66 -19,143c-9,77 -23,159 -31,182c-25,70 -94,113 -184,113l-34,0l36,38c60,61 83,123 83,222c0,70 -5,94 -25,135c-107,218 -383,218 -490,0c-20,-41 -25,-65 -25,-135c0,-99 23,-161 83,-222l36,-38l-34,0c-90,0 -159,-43 -184,-113c-8,-23 -22,-105 -31,-182c-9,-77 -18,-141 -20,-143c-2,-2 -28,22 -59,53c-143,146 -215,360 -186,556c13,92 44,184 87,256c38,65 143,174 209,219c156,103 355,136 539,89zm-80,-278c58,-33 98,-104 103,-182c5,-78 -10,-126 -57,-178c-82,-91 -190,-91 -272,0c-47,52 -62,100 -57,178c7,120 88,205 193,205c33,0 63,-8 90,-23zm184,-566c17,-16 31,-35 31,-43c0,-7 9,-85 20,-172c14,-114 16,-163 9,-172c-20,-24 -164,-73 -251,-85c-67,-9 -104,-9 -169,1c-86,12 -229,61 -248,84c-8,9 -4,62 12,191c32,243 5,225 322,225l243,0l31,-29z" fill="#7f7f7f" id="svg_2"/>
  </g>
 </g>
</svg>